<svg width="48" height="48" viewBox="0 0 48 48" fill="none" xmlns="http://www.w3.org/2000/svg">
<rect width="48" height="48" rx="8" fill="#6C63FF"/>
<path d="M24 10C16.3 10 10 16.3 10 24C10 30.1 14 35.3 19.6 37.3C20.3 37.4 20.6 37 20.6 36.7C20.6 36.4 20.6 35.6 20.6 34.5C16.7 35.3 15.9 32.4 15.9 32.4C15.3 30.8 14.4 30.4 14.4 30.4C13.1 29.6 14.5 29.6 14.5 29.6C15.9 29.7 16.7 31 16.7 31C18 33.2 20.2 32.6 21.1 32.2C21.2 31.3 21.6 30.7 22 30.3C18.5 29.9 15 28.6 15 23.2C15 21.7 15.6 20.5 16.5 19.6C16.4 19.2 15.9 17.8 16.6 15.9C16.6 15.9 17.8 15.5 20.6 17.4C21.7 17.1 22.9 17 24 17C25.1 17 26.3 17.1 27.4 17.4C30.2 15.5 31.4 15.9 31.4 15.9C32.1 17.8 31.6 19.2 31.5 19.6C32.4 20.5 33 21.7 33 23.2C33 28.6 29.5 29.9 26 30.3C26.6 30.8 27.1 31.7 27.1 33.1C27.1 35.1 27.1 36.3 27.1 36.7C27.1 37 27.4 37.4 28.1 37.3C33.7 35.3 37.7 30.1 37.7 24C38 16.3 31.7 10 24 10Z" fill="white"/>
</svg>
